<svg width="42" height="35" viewBox="0 0 42 35" fill="none" xmlns="http://www.w3.org/2000/svg">
<path d="M36.5822 8.73036H31.3879V1.64686C31.3879 1.27113 31.251 0.910788 31.0075 0.645106C30.764 0.379423 30.4337 0.230164 30.0893 0.230164H1.52043C1.17603 0.230164 0.845726 0.379423 0.602194 0.645106C0.358662 0.910788 0.221848 1.27113 0.221848 1.64686V27.1475C0.221848 27.5232 0.358662 27.8835 0.602194 28.1492C0.845726 28.4149 1.17603 28.5642 1.52043 28.5642H2.81902V3.06356H28.7907V19.639C29.4528 19.4547 30.1332 19.3596 30.8165 19.3556H31.3879V11.5638H36.5822C37.271 11.5638 37.9316 11.8623 38.4187 12.3936C38.9057 12.925 39.1794 13.6457 39.1794 14.3972V15.8139H33.985V18.6473H39.1794V25.7308H36.0628C35.6072 24.5762 34.8515 23.5927 33.8891 22.9016C32.9267 22.2105 31.7998 21.8422 30.6477 21.8422C29.4955 21.8422 28.3686 22.2105 27.4062 22.9016C26.4438 23.5927 25.6882 24.5762 25.2326 25.7308H16.3632C15.9163 24.5678 15.1633 23.5756 14.1994 22.8796C13.2355 22.1836 12.104 21.8151 10.9482 21.8207C9.84991 21.8471 8.78218 22.2199 7.87396 22.8941C6.96575 23.5683 6.25592 24.5149 5.83023 25.6197C5.40454 26.7245 5.28121 27.9402 5.47514 29.1198C5.66907 30.2994 6.17196 31.3925 6.92306 32.267C7.67415 33.1415 8.6413 33.7601 9.70767 34.0479C10.774 34.3357 11.894 34.2804 12.9322 33.8888C13.9704 33.4972 14.8824 32.786 15.5581 31.8411C16.2338 30.8962 16.6443 29.758 16.7398 28.5642H24.8949C25.06 30.1137 25.7411 31.543 26.8089 32.5804C27.8767 33.6179 29.2568 34.1911 30.6866 34.1911C32.1165 34.1911 33.4965 33.6179 34.5643 32.5804C35.6321 31.543 36.3133 30.1137 36.4783 28.5642H40.478C40.8224 28.5642 41.1527 28.4149 41.3962 28.1492C41.6397 27.8835 41.7765 27.5232 41.7765 27.1475V14.3972C41.7765 12.8942 41.2293 11.4529 40.2551 10.3901C39.281 9.3274 37.9598 8.73036 36.5822 8.73036ZM10.9482 31.3976C10.5263 31.4274 10.1033 31.3626 9.70537 31.207C9.30741 31.0515 8.94294 30.8085 8.63449 30.4931C8.32604 30.1777 8.08018 29.7967 7.91209 29.3735C7.74401 28.9504 7.65729 28.4941 7.65729 28.0329C7.65729 27.5717 7.74401 27.1154 7.91209 26.6923C8.08018 26.2691 8.32604 25.8881 8.63449 25.5727C8.94294 25.2573 9.30741 25.0143 9.70537 24.8588C10.1033 24.7032 10.5263 24.6384 10.9482 24.6682C11.37 24.6384 11.793 24.7032 12.1909 24.8588C12.5889 25.0143 12.9534 25.2573 13.2618 25.5727C13.5703 25.8881 13.8161 26.2691 13.9842 26.6923C14.1523 27.1154 14.239 27.5717 14.239 28.0329C14.239 28.4941 14.1523 28.9504 13.9842 29.3735C13.8161 29.7967 13.5703 30.1777 13.2618 30.4931C12.9534 30.8085 12.5889 31.0515 12.1909 31.207C11.793 31.3626 11.37 31.4274 10.9482 31.3976ZM30.6477 31.3976C30.0434 31.3643 29.4614 31.1382 28.9738 30.7475C28.4862 30.3567 28.1145 29.8184 27.9047 29.1994C27.6949 28.5803 27.6562 27.9076 27.7936 27.2648C27.9309 26.622 28.2381 26.0373 28.6772 25.5832C29.1163 25.129 29.6679 24.8255 30.2636 24.7102C30.8593 24.5949 31.4729 24.6729 32.0284 24.9345C32.5839 25.1961 33.0568 25.6298 33.3884 26.1818C33.7201 26.7338 33.8959 27.3799 33.8941 28.04C33.8703 28.9544 33.5153 29.8212 32.9068 30.4505C32.2983 31.0799 31.4859 31.4204 30.6477 31.3976Z" fill="#48A2A9"/>
</svg>
