<svg width="42" height="41" viewBox="0 0 42 41" fill="none" xmlns="http://www.w3.org/2000/svg">
<path d="M21.1299 0.28125C23.6421 0.28125 26.0501 0.711586 28.2806 1.4975L25.7871 3.90981C22.0136 2.91628 18.0067 3.15787 14.3895 4.59703C10.7724 6.03618 7.74777 8.59224 5.78592 11.8677C3.82408 15.1432 3.03499 18.9546 3.54135 22.7092C4.04771 26.4638 5.82115 29.9511 8.5859 32.629C11.3507 35.3069 14.9518 37.0252 18.8293 37.5167C22.7068 38.0083 26.6434 37.2455 30.0269 35.3471C33.4105 33.4486 36.0514 30.5208 37.5389 27.019C39.0265 23.5172 39.2773 19.6376 38.2525 15.9835L40.7439 13.5712C41.5772 15.7882 42.0023 18.1296 42 20.4889C42 31.6493 32.6562 40.6965 21.1299 40.6965C9.60349 40.6965 0.259705 31.6493 0.259705 20.4889C0.259705 9.32841 9.60349 0.28125 21.1299 0.28125ZM21.1299 8.36672C22.1871 8.36625 23.2401 8.49522 24.2639 8.75058V11.9165C22.2561 11.2287 20.0664 11.2223 18.0543 11.8982C16.0422 12.5742 14.3272 13.8924 13.1908 15.6365C12.0544 17.3806 11.5642 19.447 11.8005 21.4964C12.0369 23.5459 12.9858 25.4566 14.4915 26.9151C15.9972 28.3735 17.9702 29.293 20.0868 29.5226C22.2033 29.7522 24.3376 29.2782 26.1393 28.1786C27.941 27.0789 29.3031 25.4188 30.002 23.4708C30.7008 21.5228 30.695 19.4027 29.9854 17.4583H33.2551C33.9078 19.9062 33.7538 22.4904 32.8146 24.8494C31.8753 27.2083 30.1979 29.2239 28.017 30.614C25.8361 32.0041 23.2608 32.6992 20.6517 32.602C18.0426 32.5048 15.5302 31.6202 13.466 30.072C11.4018 28.5237 9.88928 26.3893 9.14001 23.9675C8.39073 21.5456 8.44223 18.9576 9.28731 16.5655C10.1324 14.1734 11.7287 12.097 13.853 10.6269C15.9772 9.15677 18.523 8.36652 21.134 8.36672H21.1299ZM25.303 20.4889C25.3028 21.3573 25.0135 22.2026 24.4781 22.8994C23.9427 23.5962 23.1898 24.1074 22.3308 24.3574C21.4717 24.6073 20.5524 24.5826 19.7091 24.2869C18.8657 23.9912 18.1432 23.4403 17.6486 22.7158C17.1539 21.9913 16.9135 21.1318 16.963 20.2647C17.0125 19.3975 17.3492 18.5689 17.9232 17.9016C18.4972 17.2342 19.2781 16.7638 20.1499 16.5598C21.0218 16.3559 21.9383 16.4294 22.7637 16.7694L26.3526 13.2944L26.3505 6.85145C26.3509 6.44971 26.516 6.06456 26.8096 5.78066L32.0261 0.729769C32.2449 0.518124 32.5237 0.374023 32.827 0.315666C33.1304 0.257309 33.4449 0.287314 33.7307 0.401892C34.0164 0.516469 34.2608 0.710479 34.4327 0.959418C34.6047 1.20836 34.6966 1.50106 34.6969 1.80056V7.35654H40.4351C40.7444 7.3568 41.0467 7.44581 41.3038 7.61233C41.5609 7.77885 41.7612 8.0154 41.8796 8.29212C41.9979 8.56883 42.0289 8.8733 41.9686 9.16705C41.9084 9.46081 41.7595 9.73069 41.541 9.9426L36.3245 14.9935C36.0313 15.2777 35.6335 15.4376 35.2186 15.438H28.5623L24.9734 18.913C25.1862 19.3979 25.303 19.9292 25.303 20.4889ZM34.5696 12.4074L36.6562 10.3871H33.1299C32.7148 10.3871 32.3168 10.2274 32.0233 9.94326C31.7298 9.65909 31.5649 9.27368 31.5649 8.87181V5.4574L29.4804 7.47776V12.2882C29.5246 12.3255 29.5664 12.3653 29.6056 12.4074H34.5717H34.5696Z" fill="#48A2A9"/>
</svg>
