<svg width="35" height="27" viewBox="0 0 35 27" fill="none" xmlns="http://www.w3.org/2000/svg">
<path d="M33.7695 0.806732H1.79427C1.11403 0.806732 0.564453 1.32242 0.564453 1.96073V25.0407C0.564453 25.679 1.11403 26.1947 1.79427 26.1947H33.7695C34.4497 26.1947 34.9993 25.679 34.9993 25.0407V1.96073C34.9993 1.32242 34.4497 0.806732 33.7695 0.806732ZM32.2322 4.80244V23.5982H3.33154V4.80244L2.27082 4.0271L3.78119 2.20595L5.42606 3.40683H30.1415L31.7864 2.20595L33.2967 4.0271L32.2322 4.80244V4.80244ZM30.1415 3.40322L17.7819 12.4188L5.42222 3.40322L3.77734 2.20235L2.26698 4.0235L3.32769 4.79884L16.456 14.377C16.8335 14.6522 17.298 14.8016 17.7761 14.8016C18.2542 14.8016 18.7187 14.6522 19.0962 14.377L32.2322 4.80244L33.2929 4.0271L31.7825 2.20595L30.1415 3.40322Z" fill="black"/>
</svg>
