<svg width="43" height="43" viewBox="0 0 43 43" fill="none" xmlns="http://www.w3.org/2000/svg">
<path d="M30.458 3.58301C32.8319 3.5901 35.1065 4.53627 36.7851 6.21487C38.4637 7.89347 39.4099 10.1681 39.417 12.542V30.458C39.4099 32.8319 38.4637 35.1065 36.7851 36.7851C35.1065 38.4637 32.8319 39.4099 30.458 39.417H12.542C10.1681 39.4099 7.89347 38.4637 6.21487 36.7851C4.53627 35.1065 3.5901 32.8319 3.58301 30.458V12.542C3.5901 10.1681 4.53627 7.89347 6.21487 6.21487C7.89347 4.53627 10.1681 3.5901 12.542 3.58301H30.458ZM30.458 0H12.542C5.64375 0 0 5.64375 0 12.542V30.458C0 37.3562 5.64375 43 12.542 43H30.458C37.3562 43 43 37.3562 43 30.458V12.542C43 5.64375 37.3562 0 30.458 0Z" fill="black"/>
<path d="M33 13C32.4067 13 31.8266 12.824 31.3333 12.4944C30.8399 12.1648 30.4554 11.6962 30.2284 11.148C30.0013 10.5999 29.9419 9.99667 30.0576 9.41473C30.1734 8.83278 30.4591 8.29824 30.8787 7.87868C31.2982 7.45912 31.8328 7.1734 32.4147 7.05765C32.9967 6.94189 33.5999 7.0013 34.148 7.22836C34.6962 7.45543 35.1648 7.83994 35.4944 8.33329C35.824 8.82664 36 9.40665 36 10C36.0008 10.3942 35.9238 10.7847 35.7734 11.149C35.6229 11.5134 35.402 11.8445 35.1232 12.1232C34.8445 12.4019 34.5134 12.6229 34.149 12.7734C33.7847 12.9238 33.3942 13.0008 33 13Z" fill="black"/>
<path d="M21.5 14.4997C22.8845 14.4997 24.238 14.9102 25.3892 15.6795C26.5404 16.4487 27.4376 17.542 27.9674 18.8211C28.4973 20.1002 28.6359 21.5078 28.3658 22.8657C28.0957 24.2236 27.429 25.471 26.45 26.45C25.471 27.429 24.2236 28.0957 22.8657 28.3658C21.5078 28.6359 20.1002 28.4973 18.8211 27.9674C17.542 27.4376 16.4487 26.5404 15.6795 25.3892C14.9103 24.238 14.4997 22.8845 14.4997 21.5C14.5017 19.644 15.2398 17.8646 16.5522 16.5522C17.8646 15.2398 19.644 14.5017 21.5 14.4997ZM21.5 11C19.4233 11 17.3932 11.6158 15.6665 12.7696C13.9398 13.9233 12.594 15.5632 11.7993 17.4818C11.0045 19.4004 10.7966 21.5116 11.2018 23.5484C11.6069 25.5852 12.6069 27.4562 14.0754 28.9246C15.5438 30.3931 17.4148 31.3931 19.4516 31.7982C21.4884 32.2034 23.5996 31.9955 25.5182 31.2007C27.4368 30.406 29.0767 29.0602 30.2304 27.3335C31.3842 25.6068 32 23.5767 32 21.5C32 18.7152 30.8938 16.0445 28.9246 14.0754C26.9555 12.1062 24.2848 11 21.5 11Z" fill="black"/>
</svg>
