<svg width="26" height="29" viewBox="0 0 26 29" fill="none" xmlns="http://www.w3.org/2000/svg">
<path d="M24.3927 19.7528C22.6607 19.7528 20.9979 19.4496 19.446 18.8888C19.2024 18.8039 18.9423 18.7929 18.6934 18.857C18.4445 18.9211 18.2162 19.0578 18.0327 19.2526L14.9843 22.5871C11.0508 20.3988 7.85363 16.9015 5.8531 12.5987L8.90147 9.24908C9.08499 9.05862 9.21506 8.81487 9.27641 8.54641C9.33777 8.27795 9.32787 7.99592 9.24787 7.7334C8.72224 5.98742 8.45559 4.16063 8.45807 2.32241C8.45807 1.48879 7.83454 0.806732 7.07245 0.806732H2.22278C1.46069 0.806732 0.837158 1.48879 0.837158 2.32241C0.837158 16.5547 11.3817 28.089 24.3927 28.089C25.1548 28.089 25.7783 27.4069 25.7783 26.5733V21.2684C25.7783 20.4348 25.1548 19.7528 24.3927 19.7528ZM23.0071 14.4479H25.7783C25.7783 10.83 24.4645 7.36034 22.1258 4.80213C19.7871 2.24392 16.6151 0.806732 13.3077 0.806732V3.8381C18.6701 3.8381 23.0071 8.58218 23.0071 14.4479ZM17.4646 14.4479H20.2358C20.2358 10.2646 17.1321 6.86946 13.3077 6.86946V9.90082C15.6079 9.90082 17.4646 11.9318 17.4646 14.4479Z" fill="black"/>
</svg>
