<svg width="43" height="44" viewBox="0 0 43 44" fill="none" xmlns="http://www.w3.org/2000/svg">
<g clip-path="url(#clip0)">
<path d="M21.5 0.6875C10.1725 0.6875 0.99469 9.57847 0.99469 20.552C0.99469 31.5255 10.1725 40.4165 21.5 40.4165C32.8275 40.4165 42.0053 31.5255 42.0053 20.552C42.0053 9.57847 32.8275 0.6875 21.5 0.6875ZM31.5707 14.2963L28.2056 29.6592C27.9575 30.7486 27.2878 31.0129 26.3535 30.5003L21.2271 26.8398L18.7549 29.1466C18.4821 29.4109 18.2506 29.6352 17.7214 29.6352L18.0852 24.581L27.5854 16.2667C27.9989 15.9143 27.4945 15.714 26.9488 16.0665L15.2078 23.2273L10.1477 21.6974C9.04798 21.361 9.02318 20.6321 10.3792 20.1195L30.1486 12.7344C31.0664 12.414 31.8684 12.9506 31.5707 14.2963Z" fill="black"/>
</g>
<defs>
<clipPath id="clip0">
<rect width="43" height="43" fill="white" transform="translate(0 0.6875)"/>
</clipPath>
</defs>
</svg>
