<svg width="41" height="40" viewBox="0 0 41 40" fill="none" xmlns="http://www.w3.org/2000/svg">
<path d="M29.8925 23.97C29.3827 23.7217 26.875 22.525 26.4081 22.3584C25.9395 22.1934 25.5996 22.1117 25.258 22.6084C24.9199 23.1034 23.9415 24.2184 23.6445 24.5484C23.3476 24.88 23.0489 24.92 22.5391 24.6734C22.0293 24.4234 20.3849 23.9017 18.4367 22.215C16.9211 20.9017 15.8963 19.28 15.5994 18.7834C15.3024 18.2884 15.5685 18.02 15.8225 17.7734C16.0525 17.5517 16.334 17.195 16.5881 16.9067C16.8438 16.6167 16.9279 16.41 17.0996 16.0784C17.2695 15.7484 17.1854 15.46 17.0567 15.2117C16.928 14.9634 15.9084 12.525 15.4844 11.5334C15.069 10.5684 14.6485 10.7001 14.3361 10.6834C14.0101 10.6708 13.6839 10.6652 13.3577 10.6667C13.0178 10.6667 12.4651 10.7901 11.9982 11.2867C11.5313 11.7817 10.2131 12.98 10.2131 15.4184C10.2131 17.855 12.0411 20.21 12.2952 20.5417C12.5509 20.8717 15.8929 25.875 21.0097 28.02C22.2267 28.53 23.1759 28.835 23.9175 29.0617C25.1396 29.44 26.2519 29.3867 27.129 29.2584C28.1091 29.1167 30.1466 28.06 30.5723 26.9034C30.998 25.7467 30.998 24.755 30.8692 24.5484C30.7422 24.3417 30.4023 24.2184 29.8908 23.97H29.8925ZM20.5858 36.3083H20.5789C17.5403 36.3086 14.5576 35.5153 11.9433 34.0117L11.3236 33.655L4.90227 35.2917L6.61532 29.2117L6.21195 28.5884C4.51339 25.9621 3.61481 22.9228 3.62006 19.8217C3.62178 10.7384 11.2344 3.3484 20.5926 3.3484C25.1242 3.3484 29.3845 5.06506 32.5874 8.17839C34.1677 9.70608 35.4203 11.5229 36.2727 13.5238C37.1251 15.5246 37.5603 17.6698 37.5532 19.835C37.5481 28.9184 29.9372 36.3083 20.5858 36.3083ZM35.0265 5.81339C33.1353 3.96493 30.8851 2.49929 28.4062 1.5014C25.9274 0.503507 23.2692 -0.00679373 20.5858 6.82958e-05C9.33423 6.82958e-05 0.176798 8.89172 0.171648 19.82C0.171648 23.3134 1.11056 26.7234 2.89742 29.7283L0 40L10.8224 37.2433C13.8153 38.8265 17.169 39.6562 20.5772 39.6567H20.5858C31.8356 39.6567 40.9948 30.765 40.9999 19.835C41.0082 17.2305 40.4845 14.6502 39.4592 12.2434C38.4339 9.83666 36.9273 7.65117 35.0265 5.81339Z" fill="black"/>
</svg>
