<svg width="33" height="41" viewBox="0 0 33 41" fill="none" xmlns="http://www.w3.org/2000/svg">
<path d="M7.00791 8.75845C6.81634 8.75845 6.6596 8.91978 6.6596 9.11697V11.2681C6.6596 11.4653 6.81634 11.6266 7.00791 11.6266H23.727C23.9186 11.6266 24.0754 11.4653 24.0754 11.2681V9.11697C24.0754 8.91978 23.9186 8.75845 23.727 8.75845H7.00791ZM15.0192 15.2118H7.00791C6.81634 15.2118 6.6596 15.3731 6.6596 15.5703V17.7215C6.6596 17.9186 6.81634 18.08 7.00791 18.08H15.0192C15.2107 18.08 15.3675 17.9186 15.3675 17.7215V15.5703C15.3675 15.3731 15.2107 15.2118 15.0192 15.2118ZM12.9293 35.7371H3.17645V4.18731H27.5585V18.5281C27.5585 18.7253 27.7152 18.8866 27.9068 18.8866H30.345C30.5366 18.8866 30.6933 18.7253 30.6933 18.5281V2.39471C30.6933 1.60149 30.0707 0.960632 29.3001 0.960632H1.43487C0.664224 0.960632 0.0416107 1.60149 0.0416107 2.39471V37.5297C0.0416107 38.3229 0.664224 38.9638 1.43487 38.9638H12.9293C13.1208 38.9638 13.2776 38.8024 13.2776 38.6053V36.0956C13.2776 35.8984 13.1208 35.7371 12.9293 35.7371ZM32.0866 31.7934H25.8169V30.1531C27.8328 29.5347 29.3001 27.6166 29.3001 25.34C29.3001 22.566 27.1188 20.3207 24.4237 20.3207C21.7286 20.3207 19.5473 22.566 19.5473 25.34C19.5473 27.6121 21.0145 29.5347 23.0304 30.1531V31.7934H16.7607C16.3776 31.7934 16.0641 32.116 16.0641 32.5104V39.3223C16.0641 39.7167 16.3776 40.0393 16.7607 40.0393H32.0866C32.4697 40.0393 32.7832 39.7167 32.7832 39.3223V32.5104C32.7832 32.116 32.4697 31.7934 32.0866 31.7934ZM22.2467 25.34C22.2467 24.1031 23.222 23.0993 24.4237 23.0993C25.6254 23.0993 26.6006 24.1031 26.6006 25.34C26.6006 26.5769 25.6254 27.5808 24.4237 27.5808C23.222 27.5808 22.2467 26.5769 22.2467 25.34ZM30.0838 37.2608H18.7635V34.5719H30.0838V37.2608Z" fill="#3A898F"/>
</svg>
