<svg width="46" height="45" viewBox="0 0 46 45" fill="none" xmlns="http://www.w3.org/2000/svg">
<path d="M7.31202 9.4169C4.87224 9.4169 2.87606 11.4131 2.87606 13.8529C2.87606 16.2926 4.87224 18.2888 7.31202 18.2888C9.7518 18.2888 11.748 16.3148 11.748 13.8529C11.748 11.3909 9.77398 9.4169 7.31202 9.4169ZM22.8379 4.98094C21.9605 4.98094 21.1029 5.24111 20.3734 5.72854C19.6439 6.21597 19.0753 6.90877 18.7396 7.71934C18.4038 8.5299 18.316 9.42183 18.4872 10.2823C18.6583 11.1428 19.0808 11.9332 19.7012 12.5536C20.3216 13.174 21.112 13.5965 21.9725 13.7676C22.833 13.9388 23.7249 13.8509 24.5355 13.5152C25.346 13.1795 26.0388 12.6109 26.5263 11.8814C27.0137 11.1519 27.2738 10.2943 27.2738 9.4169C27.2738 6.95495 25.2998 4.98094 22.8379 4.98094ZM38.3638 0.544983C35.924 0.544983 33.9278 2.54117 33.9278 4.98094C33.9278 7.42072 35.924 9.4169 38.3638 9.4169C40.8035 9.4169 42.7997 7.4429 42.7997 4.98094C42.7997 2.51899 40.8257 0.544983 38.3638 0.544983ZM3.98505 20.5068C2.14413 20.5068 0.658081 21.9929 0.658081 23.8338V33.8147H2.87606V44.9046H11.748V33.8147H13.966V23.8338C13.966 21.9929 12.4799 20.5068 10.639 20.5068H3.98505ZM19.5109 16.0708C17.67 16.0708 16.1839 17.5569 16.1839 19.3978V29.3787H18.4019V40.4686H27.2738V29.3787H29.4918V19.3978C29.4918 17.5569 28.0058 16.0708 26.1649 16.0708H19.5109ZM35.0368 11.6349C33.1959 11.6349 31.7098 13.1209 31.7098 14.9619V24.9428H33.9278V36.0327H42.7997V24.9428H45.0177V14.9619C45.0177 13.1209 43.5316 11.6349 41.6907 11.6349H35.0368Z" fill="#3A898F"/>
</svg>
