<svg width="44" height="43" viewBox="0 0 44 43" fill="none" xmlns="http://www.w3.org/2000/svg">
<path d="M29.0615 25.3259H30.0847C31.777 25.3259 33.1542 23.9487 33.1542 22.2563V3.83918C33.1542 2.14685 31.777 0.769653 30.0847 0.769653H3.48212C1.78979 0.769653 0.412598 2.14685 0.412598 3.83918V33.5113L11.3258 25.3259H29.0615ZM9.96292 21.2332L4.5053 25.3259V4.86236H29.0615V21.2332H9.96292Z" fill="#3A898F"/>
<path d="M40.3071 9.93457H39.1378V23.969C39.1378 26.5416 37.0493 28.63 34.4838 28.6441H11.0735V29.8134C11.0735 31.7475 12.6475 33.3214 14.5816 33.3214H31.3429L43.8152 42.6762V13.4426C43.8152 11.5085 42.2412 9.93457 40.3071 9.93457Z" fill="black"/>
</svg>
