<svg width="59" height="48" viewBox="0 0 59 48" fill="none" xmlns="http://www.w3.org/2000/svg">
<line x1="0.605103" y1="46.045" x2="24.9379" y2="46.045" stroke="#48A2A9" stroke-width="3"/>
<path d="M57.338 44.1248C56.8182 44.6446 56.1973 44.9045 55.4753 44.9045C54.7533 44.9045 54.1324 44.6446 53.6125 44.1248L34.1619 24.6741L29.6133 29.2227V29.266C30.1331 29.7859 30.393 30.414 30.393 31.1505C30.393 31.8869 30.1331 32.515 29.6133 33.0349C29.0934 33.5547 28.4653 33.8146 27.7289 33.8146C26.9924 33.8146 26.3643 33.5547 25.8444 33.0349L14.5379 21.7284C14.0181 21.2085 13.7582 20.5804 13.7582 19.844C13.7582 19.1075 14.0181 18.4794 14.5379 17.9595C15.0578 17.4397 15.6859 17.1798 16.4224 17.1798C17.1588 17.1798 17.7869 17.4397 18.3068 17.9595L18.3501 18.0029L31.2161 5.13683L31.1728 5.09351C30.653 4.57368 30.393 3.94554 30.393 3.2091C30.393 2.47266 30.653 1.84452 31.1728 1.32468C31.6926 0.804841 32.3208 0.544922 33.0572 0.544922C33.7936 0.544922 34.4218 0.804841 34.9416 1.32468L46.2481 12.6312C46.768 13.151 47.0279 13.7792 47.0279 14.5156C47.0279 15.252 46.768 15.8802 46.2481 16.4C45.7283 16.9199 45.1002 17.1798 44.3637 17.1798C43.6273 17.1798 42.9991 16.9199 42.4793 16.4L42.436 16.3567L37.8874 20.9053L57.338 40.3993C57.8579 40.9191 58.1178 41.54 58.1178 42.262C58.1178 42.984 57.8579 43.6049 57.338 44.1248ZM28.357 11.3749L24.6315 15.1437L32.4724 22.9846L36.1979 19.2591L28.357 11.3749Z" fill="#3A898F"/>
</svg>
