<svg width="45" height="45" viewBox="0 0 45 45" fill="none" xmlns="http://www.w3.org/2000/svg">
<path d="M43.5947 25.1376H24.2453L37.1316 38.8295C37.6241 39.3528 38.4347 39.3953 38.9411 38.8884C42.0968 35.7295 44.2674 31.4711 44.9043 26.6842C45.0136 25.8646 44.3735 25.1376 43.5947 25.1376ZM42.3039 19.5233C41.632 9.17321 33.8479 0.902478 24.1067 0.188558C23.363 0.133974 22.7368 0.800242 22.7368 1.59214V20.9789H40.9837C41.729 20.9789 42.3553 20.3135 42.3039 19.5233ZM18.8227 25.1376V4.57865C18.8227 3.75123 18.1386 3.0711 17.368 3.1872C7.6505 4.64623 0.222736 13.6664 0.568479 24.4766C0.924007 35.5787 9.92066 44.6829 20.3745 44.5435C24.4843 44.4889 28.2817 43.0818 31.404 40.7287C32.0482 40.2435 32.0906 39.2358 31.532 38.6423L18.8227 25.1376Z" fill="#3A898F"/>
</svg>
