<svg width="46" height="45" viewBox="0 0 46 45" fill="none" xmlns="http://www.w3.org/2000/svg">
<path d="M27.85 26.21L30.9551 20.8318C31.1548 20.4984 31.066 20.0761 30.7777 19.8317L27.4951 17.2537C27.5617 16.7647 27.606 16.2536 27.606 15.7424C27.606 15.2312 27.5617 14.7201 27.4951 14.2089L30.7777 11.6309C31.066 11.3864 31.1548 10.9642 30.9551 10.6308L27.85 5.25256C27.6504 4.91919 27.2512 4.78585 26.8963 4.91919L23.037 6.47489C22.2386 5.85261 21.3736 5.34145 20.4199 4.94141L19.8432 0.829928C19.806 0.650183 19.7088 0.488466 19.5678 0.371343C19.4267 0.25422 19.2501 0.188658 19.0669 0.185425H12.8566C12.4796 0.185425 12.1469 0.47434 12.0803 0.852152L11.5037 4.96364C10.5721 5.36368 9.68494 5.87483 8.88648 6.49711L5.02724 4.94141C4.67236 4.80807 4.27313 4.94142 4.07351 5.27478L0.968374 10.653C0.768758 10.9864 0.857477 11.4087 1.14581 11.6531L4.42839 14.2312C4.36185 14.7201 4.31749 15.2312 4.31749 15.7424C4.31749 16.2536 4.36185 16.7647 4.42839 17.2759L1.14581 19.8539C0.857477 20.0984 0.768758 20.5206 0.968374 20.854L4.07351 26.2323C4.27313 26.5656 4.67236 26.699 5.02724 26.5656L8.88648 25.0099C9.68494 25.6322 10.5499 26.1434 11.5037 26.5434L12.0803 30.6549C12.1469 31.0105 12.4796 31.2994 12.8566 31.2994H19.0669C19.444 31.2994 19.7766 31.0105 19.8432 30.6327L20.4199 26.5212C21.3514 26.1211 22.2386 25.61 23.037 24.9877L26.8963 26.5434C27.2512 26.6767 27.6504 26.5434 27.85 26.21ZM15.9618 20.1873C13.522 20.1873 11.5258 18.1871 11.5258 15.7424C11.5258 13.2977 13.522 11.2976 15.9618 11.2976C18.4015 11.2976 20.3977 13.2977 20.3977 15.7424C20.3977 18.1871 18.4015 20.1873 15.9618 20.1873ZM45.0392 37.2333L42.9099 35.5887C42.9543 35.2775 42.9987 34.9442 42.9987 34.6108C42.9987 34.2774 42.9765 33.9441 42.9099 33.6329L45.017 31.9883C45.1944 31.8328 45.261 31.5661 45.1279 31.3438L43.1317 27.8991C43.0208 27.6768 42.7547 27.6102 42.5107 27.6768L40.0488 28.6769C39.5386 28.2769 38.9841 27.9435 38.3631 27.6991L37.9861 25.0766C37.9773 24.9578 37.9248 24.8465 37.8387 24.7644C37.7526 24.6822 37.6391 24.6351 37.5203 24.6321H33.5502C33.3062 24.6321 33.0844 24.8099 33.0622 25.0544L32.6852 27.6768C32.0863 27.9435 31.5096 28.2547 30.9995 28.6547L28.5376 27.6546C28.4246 27.612 28.3001 27.611 28.1864 27.6517C28.0727 27.6924 27.9771 27.7721 27.9165 27.8768L25.9204 31.3216C25.8095 31.5438 25.8317 31.8105 26.0313 31.9661L28.1383 33.6107C28.0469 34.2594 28.0469 34.9177 28.1383 35.5664L26.0313 37.211C25.8538 37.3666 25.7873 37.6333 25.9204 37.8555L27.9165 41.3003C28.0274 41.5225 28.2936 41.5892 28.5376 41.5225L30.9995 40.5224C31.5096 40.9225 32.0641 41.2558 32.6852 41.5003L33.0622 44.1228C33.1066 44.3672 33.3062 44.545 33.5502 44.545H37.5203C37.7643 44.545 37.9861 44.3672 38.0083 44.1228L38.3853 41.5003C38.9842 41.2336 39.5608 40.9225 40.0488 40.5224L42.5329 41.5225C42.7547 41.6114 43.0208 41.5225 43.1539 41.3003L45.1501 37.8555C45.2831 37.6555 45.2166 37.3888 45.0392 37.2333ZM35.5241 37.5888C34.7297 37.5886 33.968 37.272 33.4064 36.709C32.8449 36.1459 32.5296 35.3824 32.5299 34.5863C32.5302 33.7903 32.8461 33.027 33.408 32.4644C33.9699 31.9017 34.7319 31.5858 35.5264 31.5861C36.3208 31.5864 37.0825 31.9029 37.6441 32.4659C38.2056 33.029 38.5209 33.7926 38.5206 34.5886C38.5203 35.3846 38.2044 36.1479 37.6425 36.7105C37.0806 37.2732 36.3186 37.5891 35.5241 37.5888Z" fill="#3A898F"/>
</svg>
